<svg xmlns="http://www.w3.org/2000/svg" version="1.1" xmlns:xlink="http://www.w3.org/1999/xlink" xmlns:svgjs="http://svgjs.dev/svgjs" width="1000" height="1000" viewBox="0 0 1000 1000"><rect width="1000" height="1000" fill="#ffffff"></rect><g transform="matrix(0.7,0,0,0.7,149.84897959183667,150.19913061224486)"><svg viewBox="0 0 343 343" data-background-color="#ffffff" preserveAspectRatio="xMidYMid meet" height="999" width="1000" xmlns="http://www.w3.org/2000/svg" xmlns:xlink="http://www.w3.org/1999/xlink"><g id="tight-bounds" transform="matrix(1,0,0,1,0.0740000000000407,0.07400000000001228)"><svg viewBox="0 0 342.85155851775386 342.85155851775386" height="342.85155851775386" width="342.85155851775386"><g><svg></svg></g><g><svg viewBox="0 0 342.85155851775386 342.85155851775386" height="342.85155851775386" width="342.85155851775386"><g><path d="M0 171.426c0-94.676 76.75-171.426 171.426-171.426 94.676 0 171.426 76.75 171.426 171.426 0 94.676-76.75 171.426-171.426 171.426-94.676 0-171.426-76.75-171.426-171.426zM171.426 327.376c86.129 0 155.95-69.821 155.95-155.95 0-86.129-69.821-155.95-155.95-155.95-86.129 0-155.95 69.821-155.95 155.95 0 86.129 69.821 155.95 155.95 155.95z" data-fill-palette-color="tertiary" fill="#454545" stroke="transparent"></path><ellipse rx="164.56874808852186" ry="164.56874808852186" cx="171.42577925887693" cy="171.42577925887693" fill="#454545" stroke="transparent" stroke-width="0" fill-opacity="1" data-fill-palette-color="tertiary"></ellipse></g><g transform="matrix(1,0,0,1,64.84655864529837,85.62047452760606)"><svg viewBox="0 0 213.1584412271571 171.61060946254173" height="171.61060946254173" width="213.1584412271571"><g><svg viewBox="0 0 213.1584412271571 171.61060946254173" height="171.61060946254173" width="213.1584412271571"><g><svg viewBox="0 0 213.1584412271571 171.61060946254173" height="171.61060946254173" width="213.1584412271571"><g><svg viewBox="0 0 213.1584412271571 171.61060946254173" height="171.61060946254173" width="213.1584412271571"><g id="textblocktransform"><svg viewBox="0 0 213.1584412271571 171.61060946254173" height="171.61060946254173" width="213.1584412271571" id="textblock"><g><svg viewBox="0 0 213.1584412271571 171.61060946254173" height="171.61060946254173" width="213.1584412271571"><g transform="matrix(1,0,0,1,0,0)"><svg width="213.1584412271571" viewBox="0.4 -32.65 41.300000000000004 33.25" height="171.61060946254173" data-palette-color="url(#4e86646a-2db8-4d50-b986-1615c6bee982)"></svg></g></svg></g></svg></g></svg></g><g></g></svg></g></svg></g></svg></g></svg></g><defs></defs><mask id="2f6abaf9-c922-4c0b-be06-b075400136b9"><g id="SvgjsG1082"><svg viewBox="0 0 342.85155851775386 342.85155851775386" height="342.85155851775386" width="342.85155851775386"><g><svg></svg></g><g><svg viewBox="0 0 342.85155851775386 342.85155851775386" height="342.85155851775386" width="342.85155851775386"><g><path d="M0 171.426c0-94.676 76.75-171.426 171.426-171.426 94.676 0 171.426 76.75 171.426 171.426 0 94.676-76.75 171.426-171.426 171.426-94.676 0-171.426-76.75-171.426-171.426zM171.426 327.376c86.129 0 155.95-69.821 155.95-155.95 0-86.129-69.821-155.95-155.95-155.95-86.129 0-155.95 69.821-155.95 155.95 0 86.129 69.821 155.95 155.95 155.95z" fill="black" stroke="transparent"></path><ellipse rx="164.56874808852186" ry="164.56874808852186" cx="171.42577925887693" cy="171.42577925887693" fill="black" stroke="transparent" stroke-width="0" fill-opacity="1"></ellipse></g><g transform="matrix(1,0,0,1,64.84655864529837,85.62047452760606)"><svg viewBox="0 0 213.1584412271571 171.61060946254173" height="171.61060946254173" width="213.1584412271571"><g><svg viewBox="0 0 213.1584412271571 171.61060946254173" height="171.61060946254173" width="213.1584412271571"><g><svg viewBox="0 0 213.1584412271571 171.61060946254173" height="171.61060946254173" width="213.1584412271571"><g><svg viewBox="0 0 213.1584412271571 171.61060946254173" height="171.61060946254173" width="213.1584412271571"><g id="SvgjsG1081"><svg viewBox="0 0 213.1584412271571 171.61060946254173" height="171.61060946254173" width="213.1584412271571" id="SvgjsSvg1080"><g><svg viewBox="0 0 213.1584412271571 171.61060946254173" height="171.61060946254173" width="213.1584412271571"><g transform="matrix(1,0,0,1,0,0)"><svg width="213.1584412271571" viewBox="0.4 -32.65 41.300000000000004 33.25" height="171.61060946254173" data-palette-color="url(#4e86646a-2db8-4d50-b986-1615c6bee982)"><path d="M41.35-4.45L41.7-4.05 41.25 0.15Q37.2 0 35.8 0L35.8 0Q34.15 0 30.43 0.15 26.7 0.3 26.35 0.4L26.35 0.4 26.95-4.05Q28.35-4.2 28.93-4.75 29.5-5.3 29.5-6.5L29.5-6.5Q29.5-9.1 29.25-18.45L29.25-18.45 28.6-18.45Q28.55-18.25 26.93-13.28 25.3-8.3 23 0.1L23 0.1 16.95 0.6Q14.45-8.55 12.95-13.43 11.45-18.3 11.4-18.45L11.4-18.45 10.75-18.45Q10.75-17.7 10.65-15.5L10.65-15.5 10.45-6Q10.45-4.3 12.1-4.3L12.1-4.3 13.4-4.4 13.85-4 13.25 0.2Q8.65 0 6.2 0L6.2 0Q5.15 0 2.78 0.18 0.4 0.35 0.4 0.4L0.4 0.4 0.8-4Q2.1-4.15 2.68-4.83 3.25-5.5 3.65-7.35L3.65-7.35Q4-10.3 4.73-17.73 5.45-25.15 5.45-25.7L5.45-25.7Q5.45-26.7 5.28-27.08 5.1-27.45 4.53-27.63 3.95-27.8 2.3-28L2.3-28 1.9-28.4 2.4-32.6Q8.55-32.35 9.65-32.35L9.65-32.35Q12.7-32.35 17.2-32.55L17.2-32.55Q17.85-29.15 18.98-24.55 20.1-19.95 21.1-16.3L21.1-16.3 21.7-16.3Q24.35-25.2 26.1-32.35L26.1-32.35Q28.1-32.35 29.1-32.3L29.1-32.3 32.1-32.25Q33.15-32.25 35.15-32.35L35.15-32.35 39.85-32.65 40.2-32.45 39.8-28.15Q37.75-28.05 37.1-27.55 36.45-27.05 36.45-25.55L36.45-25.55Q36.45-23.35 36.8-17.82 37.15-12.3 37.55-8.75L37.55-8.75Q37.75-6.2 38.25-5.28 38.75-4.35 39.9-4.35L39.9-4.35Q40.65-4.35 41.35-4.45L41.35-4.45Z" opacity="1" transform="matrix(1,0,0,1,0,0)" fill="white" class="wordmark-text-0" id="SvgjsPath1079"></path></svg></g></svg></g></svg></g></svg></g><g></g></svg></g></svg></g></svg></g></svg></g><defs><mask></mask></defs></svg></g></mask><linearGradient x1="0" x2="1" y1="0.5" y2="0.5" id="4e86646a-2db8-4d50-b986-1615c6bee982"><stop stop-color="#ffa62e" offset="0"></stop><stop stop-color="#f71b3d" offset="1"></stop></linearGradient><rect width="342.852" height="342.852" fill="url(#4e86646a-2db8-4d50-b986-1615c6bee982)" mask="url(#2f6abaf9-c922-4c0b-be06-b075400136b9)" data-fill-palette-color="quaternary"></rect></svg><rect width="342.85155851775386" height="342.85155851775386" fill="none" stroke="none" visibility="hidden"></rect></g></svg></g></svg>